<?xml version="1.0" encoding="utf-8"?>
<!-- Generator: Adobe Illustrator 21.1.0, SVG Export Plug-In . SVG Version: 6.00 Build 0)  -->
<svg version="1.0" id="Capa_1" xmlns="http://www.w3.org/2000/svg" xmlns:xlink="http://www.w3.org/1999/xlink" x="0px" y="0px"
	 viewBox="0 0 1400 978" enable-background="new 0 0 1400 978" xml:space="preserve">
<g>
	<path fill="#151D38" d="M166,501.6c0.4-0.6,0.7-1.2,1-1.9c1.6-4.5,4.8-7,9.5-7.6c1.9-0.2,2-0.2,2-2.3c0-9.1,0-18.2,0-27.4
		c0-3.5,0-3.5,3.6-3.5c9.3,0,18.6,0,27.8,0c0.6,0,1.1,0,1.7,0c0.8,0,0.7-0.4,0.3-0.9c-0.3-0.3-0.6-0.6-0.8-0.9
		c-4.2-5.2-3.8-12.7,1.1-17.4c4.7-4.5,12.4-4.8,17.3-0.6c5.2,4.5,6.1,12,2.1,17.5c-0.5,0.7-1.7,1.3-1.3,2c0.3,0.7,1.6,0.2,2.5,0.3
		c9.3,0,18.6,0,27.8,0c0.6,0,1.1,0,1.7,0c1.1,0.1,1.6,0.7,1.6,1.7c0,1.2,0,2.4,0,3.6c0,5.6,0,11.2,0,16.8c0,1.8,0.1,1.8,1.7,1.1
		c7.9-3.4,15.2-7.7,22.3-12.6c1.5-1,3-2.2,4.5-3.2c0.9-0.6,1.3-1.2,1.3-2.4c0-9,0-18.1,0-27.1c0-1.6-0.1-1.7-1.8-1.7
		c-1.8,0-3.7,0-5.5,0c-5.8-0.1-9.4-3.8-9.4-9.6c0-6.8,0.1-13.6-0.1-20.4c-0.1-4.2,3-9.2,8.6-9.4c2.3-0.1,2-0.6,2-2.1
		c0-11.5,0-23,0-34.6c0-1.5-0.6-2-1.9-2.4c-4.1-1.5-6.6-5.2-6.5-9.4c0.1-4.3,2.8-7.9,6.9-9.2c5.1-1.6,10.4,1,12.3,6
		c1.8,4.9-0.5,10.5-5.4,12.3c-2.1,0.8-2.5,1.8-2.5,3.8c0.1,10.8,0,21.6,0,32.4c0,0.4,0,0.8,0,1.2c0,1.7,0.5,2.1,2.2,1.9
		c0.6-0.1,1-0.3,1-1c0-0.6,0-1.1,0-1.7c0-5.8,0-11.5,0-17.3c0-13.3,10.7-23.9,24-23.9c36.8,0,73.6,0,110.4,0c13.2,0,24,10.7,24,23.9
		c0,6.1,0,12.2,0,18.2c0,0.9-0.1,1.8,1.3,1.8c1.5,0,1.8-0.1,1.8-1.8c0-4.6,0-9.1,0-13.7c0-6.9,0-13.8,0-20.6c0-2.2,0-2.2-2.1-3
		c-4.7-1.9-7.2-6.9-5.9-11.8c1.3-5,6-7.9,11.3-7.1c4.8,0.8,8.4,5.2,8.1,10.1c-0.3,4.3-2.5,7.4-6.6,8.8c-1.5,0.5-1.8,1.2-1.8,2.6
		c0,11.4,0,22.9,0,34.3c0,2,0,2,1.9,2.1c4.8,0.4,8,3.3,8.6,8.1c0.1,1.1,0.2,2.2,0.2,3.3c0,5.6,0,11.2,0,16.8c0,1,0,2.1-0.2,3.1
		c-0.7,4.7-4,7.8-8.8,8c-2.1,0.1-4.2,0-6.2,0c-1,0-1.6,0.2-1.6,1.4c0,7.8,0,15.5,0,23.3c0,0.9,0.5,1.7,0.8,2.5
		c11.2,23.8,22.4,47.6,33.6,71.4c6.6,14.1,13.3,28.2,19.9,42.3c0.3,0.7,0.6,1.3,0.9,2c0.3,0.7,0.7,0.8,1.5,0.7c5.9-0.9,9.4,1,12,6.4
		c4.1,8.6,8.1,17.2,12.1,25.8c1.2,2.6,1.2,2.8-1.6,4.1c-3,1.4-5.9,2.8-8.9,4.2c-0.3,0.1-0.7,0.2-0.6,0.6c0,0.5,0.5,0.3,0.8,0.3
		c0.6,0,1.1,0,1.7,0c35.2,0,70.4,0,105.6,0c3.1,0,3,0.5,3-2.9c0-21.4,0-42.9,0-64.3c0-3.6,0-3.6,3.6-3.6c23,0,46.1,0,69.1,0
		c0.6,0,1.1,0,1.7,0c1.7,0.1,2.1,0.5,2.1,2.2c0,0.6,0,1.3,0,1.9c0,21.3,0,42.6,0,63.8c0,3.1-0.2,2.9,2.8,2.9c6.6,0,13.1,0,19.7,0
		c2.2,0,2.2,0,2.2-2.3c0-14.4,0-28.8,0-43.2c0-7.4,0-14.7,0-22.1c0-3.2,0.2-3.3,3.4-3.3c14.6,0,29.3,0,43.9,0c0.6,0,1.1,0,1.7,0
		c1.8-0.1,1.8-0.1,1.8-1.9c0-0.7,0-1.4,0-2.2c0-56.2,0-112.5,0-168.7c0-2.4,0.2-4.8,0.1-7.2c-0.1-3.1,1.8-4.8,4.9-4.9
		c0.6,0,1.3,0,1.9,0c120.6,0,241.3,0,361.9,0c0.6,0,1.3,0,1.9,0c3,0.1,4.6,1.9,4.9,4.8c1,9.7,0.5,19.4,0.5,29.1
		c0,138.4,0,276.8,0,415.2c0,4.1-0.6,3.6,3.5,3.6c22,0,44,0,66,0c0.7,0,1.4,0,2.2,0c1,0.1,1.3,0.7,1.3,1.7c0,0.9-0.5,1.3-1.4,1.3
		c-0.9,0-1.8,0-2.6,0c-247.3,0-494.6,0-741.8,0c-82.5,0-165,0-247.4,0c-0.9,0-1.8,0-2.6-0.1c-0.8-0.1-1.4-0.6-1.4-1.4
		c-0.1-0.9,0.6-1.5,1.5-1.6c0.7-0.1,1.4,0,2.2,0c25.3,0,50.6,0,75.8,0c0.6,0,1.1,0,1.7,0c2.1,0,2.1,0,2.1-2.1c0-5.4,0-10.9,0-16.3
		c0-0.6,0-1.1,0-1.7c0.1-0.9,0.6-1.5,1.5-1.5c0.6-0.1,1.3,0,1.9,0c8.2,0,16.5,0,24.7,0c0.6,0,1.1,0,1.7,0c0.7,0,1-0.3,1-1
		c0-0.6,0-1.1,0-1.7c0-72.3,0-144.6,0-217c0-0.2,0-0.3,0-0.5c0-2.3,0-2.3-2.4-2.3c-4.1,0-8.2,0-12.2,0c-12.9,0-25.8,0-38.6,0
		c-0.7,0-1.4,0-2.2,0c-1.4-0.2-1.7-0.5-1.8-2c0-0.6,0-1.3,0-1.9c0-24,0-48,0-72c0-0.8,0.5-1.9-0.4-2.4c-0.7-0.4-1.4,0.5-2.1,0.9
		c-8,4.7-16.4,8.7-25.1,11.8c-2.4,0.9-2.1,0.4-2.1,3.2c0,19.4,0,38.9,0,58.3c0,4.1,0,4.1-4.1,4.1c-25.8,0-51.5,0-77.3,0
		c-0.3,0-0.6,0-1,0c-2.7,0-3-0.3-3-3.1c0-11.2,0-22.4,0-33.6c0-0.6,0-1.1,0-1.7c0.1-0.9-0.3-1.3-1.2-1.4c-5.3-0.5-8.9-3.3-10.4-8.4
		c-0.1-0.5-0.3-0.9-0.8-1.1C166,516.3,166,508.9,166,501.6z"/>
	<path fill="#7DA4EC" d="M1158.1,595.9c0-72.8,0-145.6,0-218.4c0-3.4,0.3-3-3.1-3c-49.6,0-99.2,0-148.8,0c-3.4,0-3-0.3-3,3.1
		c0,145.4,0,290.9,0,436.3c0,3.5-0.5,3.1,3.2,3.1c49.5,0,99,0,148.5,0c3.6,0,3.2,0.4,3.2-3.2
		C1158.1,741.2,1158.1,668.5,1158.1,595.9z"/>
	<path fill="#FFFFFF" d="M397.3,684.1c0,35.9,0,71.8,0,107.8c0,3.5,0,3.5,3.4,3.5c8.2,0,16.5,0,24.7,0c2.6,0,2.8,0.3,2.9,2.9
		c0,2.3,0,4.6,0,7c0,3.4,0,6.7,0,10.1c0,1.7,0.1,1.7,1.8,1.7c0.3,0,0.6,0,1,0c17,0,33.9,0,50.9,0c0.5,0,1,0,1.4,0
		c0.9,0,1.3-0.4,1.3-1.3c0-0.6,0-1.3,0-1.9c0-19.8,0-39.7,0-59.5c0-0.6,0-1.3,0-1.9c0.1-1.7,0.4-2,2.2-2.1c0.4,0,0.8,0,1.2,0
		c22.2,0,44.5,0,66.7,0c0.5,0,1,0,1.4,0c1.4,0.1,1.8,0.5,2,1.9c0.1,0.6,0,1.3,0,1.9c0,11.2,0,22.4,0,33.6c0,9,0,18.1,0,27.1
		c0,2.3,0,2.3,2.2,2.3c4.2,0,8.5,0,12.7,0c3.3,0,2.9,0.3,2.9-3c0-20.2,0-40.5,0-60.7c0-3,0.2-3.1,3.1-3.1c47.7,0,95.4,0,143,0
		c2.8,0,3,0.2,3,3c0,0.6,0,1.1,0,1.7c0,19.9,0,39.8,0,59.8c0,2.3,0,2.3,2.4,2.4c0.3,0,0.6,0,1,0c17.8,0,35.5,0,53.3,0
		c3.5,0,3.2,0.5,3.2-3.2c0-48.9,0-97.8,0-146.6c0-3.8,0.2-3.2-3.2-3.2c-30.6,0-61.3,0-91.9,0c-1.7,0-3.4,0-5-0.3
		c-7-1.4-12.2-5.3-15.6-11.7c-0.2-0.4-0.3-1.1-0.8-1.1c-0.7-0.1-0.7,0.7-0.9,1.2c-4.4,7.9-11.1,11.9-20.1,11.9
		c-52.2,0-104.3,0-156.5,0c-1.3,0-2.6,0-3.8-0.2c-10.4-1.5-18.4-10.5-18.7-20.9c-0.3-10.8,7-20.1,17.4-22.2c3-0.6,6.1-0.4,9.1-0.5
		c2.8,0,2.8,0,1.6-2.5c-14.4-30.6-28.8-61.2-43.2-91.7c-0.3-0.6-0.5-1.8-1.1-1.6c-0.7,0.1-0.3,1.2-0.3,1.9c-0.1,0.5,0,1,0,1.4
		c0,14,0,28,0,42c0,3.1-0.2,3.3-3.2,3.3c-0.5,0-1,0-1.4,0c-15.7,0-31.4,0-47,0c-3.4,0-3-0.2-3,3C397.3,612,397.3,648,397.3,684.1z"
		/>
	<path fill="#FFFFFF" d="M893.9,817c34.4,0,68.8,0,103.2,0c3.6,0,3.2,0.3,3.2-3.2c0-62.5,0-125.1,0-187.6c0-0.6,0-1.1,0-1.7
		c0.1-1.2-0.5-1.5-1.6-1.5c-3.6,0-7.2,0-10.8,0c-2.9,0-2.8-0.5-2.8,2.9c0.1,5.2-0.5,10.4-2.3,15.3c-6.9,19.4-26.2,30.1-44.7,27.5
		c-14.4-2.1-25-9.7-31.7-22.5c-3.4-6.3-4.6-13.2-4.5-20.4c0.1-3.2,0.3-2.8-2.8-2.8c-8.9,0-17.8,0-26.6,0c-3.5,0-3.5,0-3.5,3.4
		c0,13.5,0.1,27,0,40.6c-0.1,14.6-14,24.8-27.9,20.4c-9-2.8-15-11-15-20.6c0-13.5,0-27,0-40.6c0-0.6,0-1.3,0-1.9
		c0-0.9-0.3-1.3-1.3-1.3c-0.6,0-1.1,0-1.7,0c-10.7,0-21.4,0-32.2,0c-3.3,0-2.9-0.5-2.9,3c0,62.7,0,125.4,0,188.1
		c0,3.3-0.4,2.9,3,2.9C825.2,817,859.5,817,893.9,817z"/>
	<path fill="#FFFFFF" d="M893.9,549.2c34.3,0,68.6,0,102.9,0c3.9,0,3.4,0.4,3.4-3.3c0-56.1,0-112.1,0-168.2c0-3.6,0.4-3.3-3.1-3.3
		c-68.6,0-137.2,0-205.9,0c-3.6,0-3.2-0.4-3.2,3.2c0,56.1,0,112.3,0,168.4c0,3.5-0.4,3.1,3,3.1C825.3,549.2,859.6,549.2,893.9,549.2
		z"/>
	<path fill="#CCD6DA" d="M372.6,569.8c24.5,0,48.9,0,73.4,0c3.2,0,2.9,0.4,2.9-3c0-36.1,0-72.1,0-108.2c0-3.6,0.1-3-3.1-3
		c-48.7,0-97.4,0-146.1,0c-0.6,0-1.1,0-1.7,0c-1.2-0.1-1.6,0.5-1.5,1.6c0,0.4,0,0.8,0,1.2c0,36.2,0,72.5,0,108.7
		c0,3-0.3,2.8,2.9,2.8C323.8,569.8,348.2,569.8,372.6,569.8z"/>
	<path fill="#CCD6DA" d="M372.8,452.6c24.2,0,48.5,0,72.7,0c0.6,0,1.1-0.1,1.7,0c1.2,0.1,1.8-0.3,1.7-1.6c0-0.4,0-0.8,0-1.2
		c0-24.5-0.1-49,0-73.4c0.1-11.8-9.6-21.7-21.8-21.7c-36.3,0.1-72.6,0.1-108.9,0c-12.7,0-21.9,10.3-21.8,21.7
		c0.2,24.4,0,48.8,0.1,73.2c0,3.3-0.4,3,2.9,3C323.9,452.6,348.4,452.6,372.8,452.6z"/>
	<path fill="#ACDCF6" d="M650.8,817c23,0,45.9,0,68.9,0c2.9,0,2.6,0,2.6-2.6c0-19.4,0-38.9,0-58.3c0-3.2,0.3-2.9-3-2.9
		c-45.7,0-91.5,0-137.2,0c-0.5,0-1,0-1.4,0c-1.2-0.1-1.6,0.5-1.5,1.6c0,0.4,0,0.8,0,1.2c0,19.4,0,38.9,0,58.3c0,3.1-0.2,2.8,2.9,2.8
		C604.9,817,627.8,817,650.8,817z"/>
	<path fill="#FFFFFF" d="M260.8,521.5c0-15.4,0-30.9,0-46.3c0-2.3,0-2.3-2.2-2.3c-25,0-50.1,0-75.1,0c-2.1,0-2.1,0-2.1,2.2
		c0,7.8,0,15.7,0,23.5c0,2.1,0,2.2,2.3,2.2c6,0,12,0,18,0c2.3,0,2.6,0.3,2.6,2.6c0,5,0,10.1,0,15.1c0,4.2,0,8.3,0,12.5
		c0,1.9-0.4,2.2-2.3,2.3c-1.4,0-2.9,0-4.3,0c-4.9,0-9.8,0-14.6,0c-1.7,0-1.7,0-1.7,1.7c0,0.4,0,0.8,0,1.2c0,10.2,0,20.5,0,30.7
		c0,3.1-0.4,2.9,3,2.9c24.5,0,48.9,0,73.4,0c0.5,0,1,0,1.4,0c1.2,0.1,1.6-0.5,1.5-1.6c0-0.6,0-1.3,0-1.9
		C260.8,551.4,260.8,536.5,260.8,521.5z"/>
	<path fill="#7DA4EC" d="M894,552.3c-34.1,0-68.3,0-102.4,0c-0.7,0-1.4,0.1-2.2,0c-1.2-0.1-1.6,0.5-1.5,1.6c0,0.4,0,0.8,0,1.2
		c0,9,0,17.9,0,26.9c0,3.1-0.3,2.7,2.6,2.7c24.2,0,48.5,0,72.7,0c0.5,0,1,0,1.4,0c0.8,0,1.1-0.3,1.1-1.1c0-1.9-0.1-3.8,0-5.8
		c0.1-1.7,0-3-2.1-3.9c-3-1.3-4-5-2.9-8c1.2-3.2,4.3-5.1,7.6-4.5c3.3,0.5,5.7,3.3,5.7,6.7c0,2.9-1.3,5.1-3.9,6.3
		c-0.8,0.4-1.4,0.7-1.3,1.7c0.1,2.5,0,5,0,7.4c0,0.9,0.4,1.3,1.3,1.2c1.8,0,3.5,0,5.3,0c8.1,0,16.2,0,24.2,0c2.1,0,2.1,0,2.1-2
		c0-1.7-0.1-3.4,0-5c0.1-1.7-0.2-2.8-2-3.7c-3.1-1.5-4.2-5.6-2.7-8.7c1.5-3.1,5.2-4.7,8.5-3.6c3.3,1.1,5.2,4.6,4.4,8
		c-0.5,2.2-1.7,3.8-3.8,4.6c-1.1,0.4-1.4,1.1-1.4,2.2c0.1,2.3,0,4.6,0,7c0,0.9,0.3,1.3,1.3,1.3c0.4,0,0.8,0,1.2,0
		c30.1,0,60.3,0,90.4,0c0.4,0,0.8,0,1.2,0c0.8,0,1.2-0.3,1.2-1.1c0-0.6,0-1.1,0-1.7c0-8.8,0-17.6,0-26.4c0-3.5,0.5-3.2-3.2-3.2
		C962.7,552.3,928.3,552.3,894,552.3z"/>
	<path fill="#ACDCF6" d="M671,552.3c-11,0-22.1,0-33.1,0c-2.1,0-2.1,0-2.1,2.1c0,21.2,0,42.4,0,63.6c0,2.1,0,2.1,2.1,2.1
		c0.2,0,0.5,0,0.7,0c21.6,0,43.2,0,64.8,0c0.6,0,1.1,0,1.7,0c0.9,0,1.3-0.4,1.3-1.3c0-0.6,0-1.1,0-1.7c0-20.6,0-41.3,0-61.9
		c0-0.5,0-1,0-1.4c0.1-1.2-0.4-1.6-1.5-1.5c-0.6,0-1.3,0-1.9,0C692.3,552.3,681.6,552.3,671,552.3z"/>
	<path fill="#ACDCF6" d="M521.4,817c10.4,0,20.8,0,31.2,0c2.9,0,2.6,0,2.6-2.6c0-19.5,0-39,0-58.5c0-0.3,0-0.6,0-1
		c0.1-1.2-0.3-1.8-1.6-1.7c-0.5,0-1,0-1.4,0c-20.5,0-40.9,0-61.4,0c-0.6,0-1.1,0-1.7,0c-1.2-0.1-1.6,0.5-1.5,1.6c0,0.4,0,0.8,0,1.2
		c0,19.4,0,38.9,0,58.3c0,0.5,0,1,0,1.4c0,0.9,0.3,1.4,1.2,1.3c0.6,0,1.3,0,1.9,0C500.9,817,511.2,817,521.4,817z"/>
	<path fill="#CCD6DA" d="M372.6,684.7c0-35.8,0-71.5,0-107.3c0-0.7,0-1.4,0-2.2c-0.1-1.8-0.1-1.9-1.9-1.9c-4.4,0-8.8,0-13.2,0
		c-4.1,0-3.6-0.5-3.6,3.6c0,71.7,0,143.4,0,215c0,0.6,0,1.1,0,1.7c0.1,1.6,0.1,1.7,1.8,1.7c4.5,0,9,0,13.4,0c3.5,0,3.5,0,3.5-3.4
		C372.6,756.2,372.6,720.5,372.6,684.7z"/>
	<path fill="#CCD6DA" d="M375.6,684.2c0,35.8,0,71.7,0,107.5c0,0.6,0,1.3,0,1.9c0,1.7,0,1.7,1.7,1.7c4.6,0,9.1,0,13.7,0
		c3.8,0,3.3,0.5,3.3-3.3c0-71.7,0-143.5,0-215.2c0-0.5,0-1,0-1.4c0-2,0-2-2-2c-4.6,0-9.3,0-13.9,0c-3.2,0-2.8-0.2-2.8,2.9
		c0,0.3,0,0.6,0,1C375.6,612.9,375.6,648.5,375.6,684.2z"/>
	<path fill="#ACDCF6" d="M737.1,586.3c0,10.5,0,21,0,31.4c0,2.3,0,2.3,2.4,2.3c14.4,0,28.8,0,43.2,0c2.2,0,2.3,0,2.3-2.2
		c0-21.1,0-42.2,0-63.4c0-2.2,0-2.2-2.3-2.2c-14.4,0-28.8,0-43.2,0c-2.3,0-2.3,0-2.4,2.4c0,0.3,0,0.6,0,1
		C737.1,565.8,737.1,576.1,737.1,586.3z"/>
	<path fill="#7DA4EC" d="M569.1,661c25.8,0,51.5,0,77.3,0c0.8,0,1.6,0,2.4,0c12.5-0.7,20.7-12.6,17.4-24
		c-2.4-8.6-9.8-13.9-19.3-13.9c-43.7,0-87.4,0-131,0c-1.1,0-2.2,0.2-3.2,0.7c-2.8,1.4-5.6,2.7-8.4,4c-2.1,1-2.5,0.8-3.5-1.3
		c-0.4-0.8-0.8-1.6-1.1-2.4c-0.3-0.8-0.9-1-1.7-1c-2.9,0.1-5.8-0.1-8.6,0.1c-13.6,1-21.9,15.1-15.9,27.1c3.6,7.1,9.5,10.6,17.4,10.7
		C516.9,661,543,661,569.1,661z"/>
	<path fill="#FFFFFF" d="M943.4,623c-3.8,0-7.7,0-11.5,0c-8.4,0-16.8,0-25.2,0c-1.7,0-1.7,0-1.8,1.7c-0.1,3.4,0.1,6.9,0.7,10.3
		c3.3,16.7,17.9,31.1,38,31.1c12,0,22-5,29.7-14.3c6.6-8,9.2-17.2,8.7-27.5c-0.1-1.1-0.5-1.4-1.4-1.3c-0.6,0-1.1,0-1.7,0
		C967.1,623,955.2,623,943.4,623z"/>
	<path fill="#FFFFFF" d="M865.9,646.7c0-7.3,0-14.5,0-21.8c0-1.8,0-1.8-1.7-1.8c-11.2,0-22.4,0-33.6,0c-1.7,0-1.7,0.1-1.7,1.8
		c0,14.1-0.1,28.1,0,42.2c0.1,9.6,7.2,17.2,16.7,18.3c10.4,1.2,20-7.3,20.2-17.8C866,660.6,865.9,653.6,865.9,646.7z"/>
	<path fill="#CCD6DA" d="M452,492.3c0,7.2,0,14.4,0,21.6c0,1.3,0.3,2.5,0.8,3.7c4.4,9.3,8.8,18.6,13.2,28
		c6.5,13.8,13,27.6,19.5,41.4c1.1,2.3,0.9,2,2.9,1.1c4.8-2.2,9.5-4.5,14.3-6.7c2.2-1,2.2-1,1.2-3.2c-16.8-35.8-33.7-71.5-50.5-107.3
		c-0.1-0.3-0.3-0.6-0.4-0.9c-0.2-0.3-0.3-0.9-0.7-0.9c-0.5,0-0.3,0.6-0.3,1c0,0.4,0,0.8,0,1.2C452,478.2,452,485.3,452,492.3z"/>
	<path fill="#FFFFFF" d="M952.6,587.6c-12,0-24,0-36,0c-3.1,0-6.2,0-9.4,0c-2.3,0-2.3,0-2.3,2.4c0,1.4,0,2.9,0,4.3
		c0,4.6,0,9.3,0,13.9c0,2.1,0,2.1,2.2,2.1c0.2,0,0.3,0,0.5,0c24,0,48,0,71.9,0c0.6,0,1.1,0,1.7,0c0.5,0,0.8-0.3,0.8-0.7
		c-0.2-2.3,0.9-4.7-1.8-6.6c-2.7-1.9-2.4-6.1,0.1-8.2c2.4-2.1,6.2-1.7,8.1,0.8c2,2.7,1.4,6.6-1.5,8.1c-1.7,0.8-1.9,1.9-1.8,3.4
		c0,0.6,0,1.1,0,1.7c-0.1,1.3,0.5,1.7,1.7,1.7c3.9-0.1,7.8,0,11.8,0c1.2,0,1.7-0.3,1.7-1.6c-0.1-6.5,0-13,0-19.4
		c0-1.7-0.1-1.7-1.8-1.7c-0.6,0-1.1,0-1.7,0C982,587.6,967.3,587.6,952.6,587.6z"/>
	<path fill="#FFFFFF" d="M827.2,587.6c-12,0-24,0-36,0c-0.6,0-1.1,0-1.7,0c-1.1-0.1-1.6,0.3-1.6,1.5c0.1,1.2,0,2.4,0,3.6
		c0,5.3,0,10.6,0,15.8c0,1.7,0,1.7,1.7,1.8c0.2,0,0.5,0,0.7,0c11,0,22.1,0,33.1,0c0.6,0,1.1,0,1.7-0.1c0.3,0,0.7-0.2,0.7-0.5
		c0.1-1.6,0.1-3.2,0.1-4.8c0-1-1.1-1-1.7-1.5c-2-1.6-2.8-4.1-2-6.4c0.8-2.3,3.2-3.9,5.6-3.7c2.5,0.2,4.5,1.9,5.1,4.4
		c0.6,2.4-0.4,4.6-2.7,6.1c-0.6,0.4-1.3,0.5-1.3,1.5c0.1,1.3,0,2.6,0,3.8c0,0.8,0.4,1.2,1.2,1.2c0.6,0,1.3,0,1.9,0
		c7.6,0,15.2,0,22.8,0c3.1,0,6.2,0,9.4,0c1.7,0,1.7-0.1,1.7-1.8c0-3,0-5.9,0-8.9c0-3.5,0-7,0-10.6c0-1.1-0.4-1.6-1.5-1.5
		c-0.6,0.1-1.1,0-1.7,0C850.8,587.6,839,587.6,827.2,587.6z"/>
	<path fill="#7DA4EC" d="M735.4,661c15.2,0,30.4,0,45.6,0c4,0,4,0,4-3.9c0-3.4,0.3-3.1-3.1-3.1c-30.4,0-60.8,0-91.2,0
		c-0.8,0-1.6,0-2.4,0c-6.2-0.4-10.8-4.9-11.3-11.3c-0.4-5.3,2.8-10.6,8.7-12.3c1.6-0.4,3.2-0.4,4.8-0.4c30.2,0,60.3,0,90.5,0
		c4.1,0,4.1,0,4.1-4.2c0-3.2,0.1-2.8-2.7-2.8c-30.7,0-61.4,0-92.1,0c-1.8,0-3.5,0.1-5.2,0.5c-10,2-16.7,12.3-14.6,22.2
		c1.9,9,9.5,15.2,18.7,15.2C704.5,661,719.9,661,735.4,661z"/>
	<path fill="#FFFFFF" d="M972.6,371.5c60.3,0,120.6,0,181,0c0.7,0,1.4,0,2.2,0c1.2-0.1,1.8-0.8,1.8-2.1c0-1.2-0.6-2-1.8-2.1
		c-0.7-0.1-1.4,0-2.2,0c-120.6,0-241.1,0-361.7,0c-0.6,0-1.1,0-1.7,0c-1.7,0.1-2.2,0.6-2.2,2.1c0,1.5,0.5,2,2.2,2.1
		c0.7,0,1.4,0,2.2,0C852.4,371.5,912.5,371.5,972.6,371.5z"/>
	<path fill="#FFFFFF" d="M740.7,651c13.8,0,27.5,0,41.3,0c3.1,0,2.9,0.4,2.9-2.8c0-4.1,0-8.2,0-12.2c0-3.4,0.2-2.9-3-2.9
		c-27.3,0-54.5,0-81.8,0c-0.4,0-0.8,0-1.2,0c-0.5,0-1.1-0.2-1.3,0.2c-0.3,0.5,0.3,0.8,0.6,1.1c1.8,2.4,2.7,5,2.6,8
		c-0.1,2.7-0.9,5-2.5,7.1c-0.3,0.3-0.9,0.7-0.6,1.2c0.3,0.4,0.9,0.2,1.3,0.2c0.6,0,1.1,0,1.7,0C714,651,727.4,651,740.7,651z"/>
	<path fill="#CCD6DA" d="M511.1,581.3c-1.3,0.1-2.4,0.5-3.5,1c-3.3,1.6-6.6,3.1-10,4.7c-2.8,1.3-5.6,2.6-8.4,4
		c-1.5,0.7-1.5,0.8-0.8,2.3c0.1,0.2,0.2,0.4,0.3,0.6c4.2,9,8.4,17.9,12.7,26.9c0.6,1.3,0.8,3.2,2.1,3.6c1.3,0.4,2.6-0.9,3.9-1.5
		c1.5-0.7,1.5-0.8,0.8-2.3c-2.2-4.7-4.4-9.4-6.6-14.1c-0.2-0.5-0.5-1-0.6-1.5c-0.2-0.7,0-1.3,0.7-1.6c0.8-0.4,1.4-0.2,1.9,0.4
		c0.3,0.4,0.5,1,0.8,1.5c2.2,4.7,4.4,9.4,6.7,14.1c0.7,1.5,0.8,1.5,2.3,0.8c5.1-2.4,10.1-4.8,15.2-7.1c1.6-0.8,1.6-0.8,0.8-2.5
		c-1-2.1-2-4.2-2.9-6.3c-2.9-6.1-5.8-12.3-8.7-18.4C516.3,582.9,514.1,581.5,511.1,581.3z"/>
	<path fill="#CCD6DA" d="M347.6,817c7.3,0,14.7,0,22,0c0.6,0,1.1,0,1.7,0c0.9,0,1.3-0.4,1.3-1.3c0-5.4,0-10.7,0-16.1
		c0-1-0.5-1.4-1.5-1.4c-0.4,0-0.8,0-1.2,0c-14.8,0-29.6,0-44.3,0c-0.5,0-1,0-1.4,0c-0.9,0-1.3,0.4-1.2,1.3c0,5.4,0,10.7,0,16.1
		c0,1.1,0.5,1.4,1.5,1.3c0.6,0,1.1,0,1.7,0C333.2,817,340.4,817,347.6,817z"/>
	<path fill="#CCD6DA" d="M400.3,817c7.7,0,15.4,0,23,0c1.8,0,1.9,0,1.9-1.9c0-5,0-10.1,0-15.1c0-1.7-0.1-1.7-1.8-1.7
		c-3.4,0-6.9,0-10.3,0c-11.8,0-23.5,0-35.3,0c-2.2,0-2.2,0-2.2,2.3c0,4.8,0,9.6,0,14.4c0,2,0,2.1,2.1,2.1
		C385.3,817,392.8,817,400.3,817z"/>
	<path fill="#CCD6DA" d="M201.4,517c0-3.5,0-7,0-10.5c0-2.6,0-2.7-2.6-2.7c-6.5,0-12.9,0-19.4,0c-0.6,0-1.3,0-1.9-0.1
		c-0.8-0.1-1.3-0.6-1.4-1.4c-0.1-0.7,0.4-1.4,1-1.4c1.4-0.1,1.3-1.1,1.3-2c0-0.7,0-1.4,0-2.2c-0.1-1.8-0.1-1.8-1.7-1.6
		c-4.3,0.5-7.2,3.7-7.3,8.1c0,5.9,0,11.8,0,17.7c0,5.7,3.3,9.2,9,9.3c7.1,0.1,14.2,0,21.3,0c1.7,0,1.7-0.1,1.7-1.8
		C201.4,524.7,201.4,520.8,201.4,517z"/>
	<path fill="#FFFFFF" d="M885.2,610.3c5,0,9.9,0,14.9,0c1.7,0,1.8-0.1,1.8-1.7c0-6.4,0-12.8,0-19.2c0-1.8,0-1.8-1.7-1.8
		c-9.8,0-19.6,0-29.5,0c-1.7,0-1.8,0.1-1.8,1.7c0,6.4,0,12.8,0,19.2c0,1.8,0.1,1.8,1.9,1.8C875.6,610.4,880.4,610.3,885.2,610.3z"/>
	<path fill="#CCD6DA" d="M293.6,480.1c0-3,0-6.1,0-9.1c0-0.4,0.2-0.9-0.2-1.1c-0.5-0.3-0.9,0.2-1.2,0.4c-8.5,6-17.4,11.3-27,15.3
		c-1,0.4-1.3,1-1.3,2c0,5.2,0,10.4,0,15.6c0,1.5,0.1,1.6,1.5,1.1c9.5-3.4,18.5-7.9,27.1-13.1c0.9-0.5,1.2-1.1,1.2-2.1
		C293.5,486,293.6,483.1,293.6,480.1z"/>
	<path fill="#151D38" d="M943.8,613.4c-11.7,0-23.3,0-35,0c-3.9,0-3.9,0-3.9,3.9c0,3.3,0,2.8,2.9,2.8c23.7,0,47.5,0,71.2,0
		c0.6,0,1.1,0,1.7,0c1.1,0.1,1.4-0.5,1.4-1.4c0-1.2,0-2.4,0-3.6c0-1.6-0.1-1.6-1.8-1.7c-0.6,0-1.1,0-1.7,0
		C967,613.4,955.4,613.4,943.8,613.4z"/>
	<path fill="#7DA4EC" d="M293.6,415.7c0-5,0-10.1,0-15.1c0-1.7,0-1.8-1.7-1.8c-2,0-4-0.1-6,0c-3.4,0.1-6,2.5-6,5.9
		c-0.1,7.2-0.1,14.4,0,21.5c0,3.3,2.5,5.7,5.8,5.8c2.1,0.1,4.1,0.1,6.2,0c1.6,0,1.7-0.1,1.7-1.8
		C293.6,425.4,293.6,420.5,293.6,415.7z"/>
	<path fill="#7DA4EC" d="M452,415.4c0,4.8,0,9.6,0,14.4c0,2.3,0,2.3,2.4,2.3c1.4,0,2.7,0,4.1,0c4.9,0,7.1-2.2,7.3-7.1
		c0-0.5,0-1,0-1.4c0-5.4,0-10.9,0-16.3c0-1,0-1.9-0.1-2.9c-0.4-3.4-2.7-5.5-6.1-5.5c-1.8,0-3.7,0-5.5,0c-2,0-2,0-2,2
		C451.9,405.6,452,410.5,452,415.4z"/>
	<path fill="#151D38" d="M806.7,613.4c-5.7,0-11.3,0-17,0c-1.7,0-1.7,0-1.8,1.7c0,1.1,0,2.2,0,3.4c-0.1,1.2,0.3,1.7,1.6,1.7
		c11.6,0,23.1,0,34.7,0c1.2,0,1.8-0.3,1.7-1.6c-0.1-1,0-2.1,0-3.1c0-2,0-2-2-2C818.2,613.3,812.5,613.4,806.7,613.4z"/>
	<path fill="#FFFFFF" d="M697.8,642.2c0.1-5-3.8-9.1-8.8-9.2c-4.9-0.1-9,3.8-9.2,8.8c-0.1,4.9,3.8,9,8.8,9.1
		C693.7,651,697.7,647.2,697.8,642.2z"/>
	<path fill="#151D38" d="M847.1,620.1c5.4,0,10.7,0,16.1,0c0.6,0,1.1,0,1.7,0c0.7,0,1-0.3,1-1c0-1.6,0-3.2,0-4.8
		c0-0.6-0.3-0.9-0.9-0.9c-0.6,0-1.3,0-1.9,0c-9.8,0-19.7,0-29.5,0c-1.5,0-3.4-0.7-4.3,0.4c-0.9,1.1-0.3,2.9-0.3,4.4
		c0,1.8,0,1.9,1.9,1.9C836.2,620.1,841.7,620.1,847.1,620.1z"/>
	<path fill="#151D38" d="M885.4,613.4c-4.5,0-9.1,0-13.6,0c-3.1,0-2.9-0.4-2.9,3c0,0.4,0,0.8,0,1.2c0,2.5,0,2.5,2.4,2.5
		c8.6,0,17.2,0,25.9,0c1.5,0,3.4,0.7,4.4-0.4c0.9-1,0.3-2.9,0.3-4.4c0-1.9,0-1.9-2-1.9C895,613.3,890.2,613.4,885.4,613.4z"/>
	<path fill="#151D38" d="M456.5,354.3c3.8,0,7-3,7-6.7c0-3.6-3.1-6.8-6.7-6.9c-3.8-0.1-7,2.9-7.1,6.7
		C449.6,351.2,452.7,354.3,456.5,354.3z"/>
	<path fill="#151D38" d="M288.8,354.3c3.9,0,6.8-2.9,6.8-6.8c0-3.8-3-6.9-6.8-6.8c-3.6,0-6.7,3.1-6.8,6.7
		C282,351.3,285,354.3,288.8,354.3z"/>
	<path fill="#151D38" d="M992.5,620.1C992.5,620.1,992.5,620.1,992.5,620.1c1,0,1.9,0,2.9,0c5.8-0.2,4.7,1.2,4.9-5.1
		c0-1.3-0.5-1.6-1.7-1.6c-2.9,0-5.7,0-8.6,0c-5.3,0-5.3,0-4.9,5.4c0.1,1,0.4,1.4,1.5,1.4C988.5,620,990.5,620.1,992.5,620.1z"/>
	<path fill="#FFFFFF" d="M668.4,623C668.4,623,668.4,623,668.4,623c-2.5,0-5,0-7.4,0c-0.4,0-0.9-0.2-1,0.3c-0.1,0.3,0.3,0.5,0.6,0.7
		c3.2,2.2,5.6,5.2,7.3,8.7c0.3,0.7,0.7,0.9,1.1,0.1c1.8-3.7,4.3-6.7,7.7-9c0.2-0.1,0.5-0.3,0.3-0.5c-0.1-0.1-0.4-0.2-0.6-0.2
		C673.7,623,671.1,623,668.4,623z"/>
	<path fill="#FFFFFF" d="M225.7,449c0-2.5-2-4.5-4.5-4.6c-2.6,0-4.5,1.9-4.5,4.5c0,2.6,1.9,4.6,4.5,4.6
		C223.6,453.5,225.6,451.5,225.7,449z"/>
	<path fill="#CCD6DA" d="M907.2,568.1c0-1.6-1-3.1-2.5-3.6c-1.5-0.6-3.3-0.1-4.3,1.1c-1,1.2-1.2,2.9-0.4,4.2
		c0.3,0.6,0.8,1.5,1.5,1.2c0.7-0.2,0.2-1.1,0.3-1.7c0-0.2,0-0.3,0-0.5c0.1-1.6,0.5-2.3,1.5-2.3c1,0,1.5,0.6,1.5,2.2
		c0,0.1,0,0.2,0,0.2c0.2,0.7-0.5,1.9,0.6,2c0.9,0.1,1.3-1,1.6-1.9C907.2,568.8,907.2,568.4,907.2,568.1z"/>
	<path fill="#FFFFFF" d="M863.5,568.4c0.1,0.9,0.5,1.8,1.3,2.5c0.2,0.2,0.6,0.4,0.8,0.2c0.1-0.1,0.2-0.4,0.2-0.6
		c0-0.9,0-1.8,0.1-2.6c0.1-0.8,0.7-1.3,1.5-1.3c0.8,0,1.3,0.5,1.4,1.3c0.1,0.8,0.1,1.6,0.1,2.4c0,0.3,0.1,0.7,0.4,0.8
		c0.3,0,0.6-0.2,0.8-0.4c1.2-1.2,1.4-3.2,0.5-4.6c-0.9-1.5-2.6-2.1-4.4-1.6C864.6,564.9,863.4,566.5,863.5,568.4z"/>
	<path fill="#151D38" d="M890.8,157.9c0.8,0.8,1,1.7,1,2.8c0,4.9,0,9.7,0,14.6c0,2.3-0.4,2.7-2.6,2.7c-13,0-26,0-39,0
		c-2.4,0-2.7-0.3-2.8-2.8c0-4.8,0-9.6,0-14.4c0-1.2,0.1-2.2,1.2-2.9C862.6,157.9,876.7,157.9,890.8,157.9z"/>
	<path fill="#7DA4EC" d="M869.7,161.1c-5.6,0-11.2,0-16.8,0c-2.8,0-2.5-0.1-2.5,2.6c0,1.7,0,3.4,0,5c0,1.6,0,3.2,0,4.8
		c0,1,0.3,1.5,1.4,1.5c0.6,0,1.1,0,1.7,0c7,0,14,0,21.1,0c4.1,0,8.1,0,12.2,0c2.1,0,2.1,0,2.1-2.2c0-3.1,0-6.2,0-9.3
		c0-2.4,0-2.4-2.3-2.4C880.8,161.1,875.2,161.1,869.7,161.1z"/>
	<path fill="#151D38" d="M629.9,212.2c13,0,26.1,0,39.1,0c0.6,0,1.1,0,1.7,0c1.2,0,1.8,0.5,1.8,1.7c0,5.4,0,10.9,0,16.3
		c0,1.2-0.6,1.8-1.7,1.9c-0.7,0.1-1.4,0-2.2,0c-26,0-51.9,0-77.9,0c-3.8,0-3.8,0-3.8-3.9c0-4.2,0-8.5,0-12.7c0-3.4,0-3.4,3.5-3.4
		C603.5,212.2,616.7,212.2,629.9,212.2z"/>
	<path fill="#151D38" d="M609,229c5.8,0,11.7,0,17.5,0c1.1,0,1.8-0.2,1.7-1.6c-0.1-3.6-0.1-7.2,0-10.8c0-1.3-0.6-1.6-1.7-1.6
		c-11.7,0-23.3,0-35,0c-1.6,0-1.7,0.1-1.7,1.8c0,3.2,0,6.4,0,9.6c0,2.5,0,2.5,2.4,2.5C597.8,229,603.4,229,609,229z"/>
	<path fill="#CCD6DA" d="M650.3,229c5.8,0,11.5,0,17.3,0c1.9,0,1.9,0,1.9-1.8c0-3.4,0-6.9,0-10.3c0-1.7-0.1-1.8-1.7-1.8
		c-11.6,0-23.2,0-34.8,0c-1.8,0-1.8,0.1-1.8,1.9c0,3.3,0,6.6,0,9.8c0,2.1,0,2.1,2.1,2.1C638.9,229.1,644.6,229,650.3,229z"/>
	<path fill="#151D38" d="M1011.7,234.7c6.5,0,13,0,19.4,0c2.5,0,2.7,0.3,2.7,2.8c0,4.1,0,8.2,0,12.2c0,1.8,0,1.9,1.9,1.9
		c5.3,0,10.6,0,15.8,0c2.7,0,2.9,0.2,2.9,2.8c0,4.8,0,9.6,0,14.4c0,2.4-0.2,2.6-2.6,2.6c-13,0-26.1,0-39.1,0c-2.4,0-2.6-0.2-2.6-2.6
		c0-4,0-8,0-12c0-2.1,0-2.2-2.1-2.2c-5,0-9.9,0-14.9,0c-0.6,0-1.3,0-1.9,0c-1.1-0.1-1.8-0.6-1.7-1.8c0-5.4,0-10.9,0-16.3
		c0-1.4,0.4-1.7,2-1.8c3.4,0,6.7,0,10.1,0S1008.3,234.7,1011.7,234.7z"/>
	<path fill="#151D38" d="M1011.5,251.6c5.9,0,11.8,0,17.7,0c1.1,0,1.8-0.2,1.7-1.6c-0.1-3.6-0.1-7.2,0-10.8c0-1.3-0.6-1.6-1.7-1.6
		c-11.7,0-23.3,0-35,0c-1.6,0-1.7,0.1-1.7,1.8c0,3.3,0,6.5,0,9.8c0,2.2,0,2.3,2.2,2.3C1000.3,251.6,1005.9,251.6,1011.5,251.6z"/>
	<path fill="#7DA4EC" d="M1032.6,254.7c-5.8,0-11.7,0-17.5,0c-1.9,0-1.9,0.1-1.9,1.8c0,3.4,0,6.7,0,10.1c0,1.8,0,1.8,1.7,1.8
		c11.7,0,23.3,0,35,0c1.6,0,1.7-0.1,1.7-1.8c0-3.3,0-6.6,0-9.8c0-2.1,0-2.1-2.2-2.1C1043.8,254.7,1038.2,254.7,1032.6,254.7z"/>
	<path fill="#151D38" d="M713.4,465c6.4,0,12.8,0,19.2,0c2.7,0,2.9,0.2,2.9,2.9c0,4.1,0,8.2,0,12.2c0,1.7,0.1,1.7,1.7,1.7
		c5,0,9.9,0,14.9,0c0.6,0,1.1,0,1.7,0c2,0.1,2.3,0.4,2.3,2.4c0,2,0,4,0,6c0,2.9,0,5.8,0,8.6c0,2.7-0.2,2.9-2.9,2.9
		c-10.2,0-20.5,0-30.7,0c-2.6,0-5.3,0-7.9,0c-2.6,0-2.8-0.3-2.8-2.9c0-3.8,0-7.7,0-11.5c0-2.7,0.1-2.5-2.4-2.5c-5,0-10.1,0-15.1,0
		c-3.1,0-3.2-0.1-3.2-3c0-4.7,0-9.4,0-14.2c0-2.3,0.3-2.6,2.6-2.6C700.3,465,706.8,465,713.4,465z"/>
	<path fill="#CCD6DA" d="M713.4,468c-3.5,0-7,0-10.6,0c-2.5,0-5,0-7.4,0c-0.7,0-1.3,0-1.3,0.9c0,4,0,8,0,12c0,0.7,0.4,1,1.1,1
		c0.6,0,1.1,0,1.7,0c8.7,0,17.4,0,26.2,0c2.6,0,5.3-0.1,7.9,0c1.3,0,1.6-0.5,1.6-1.7c-0.1-3.5,0-7,0-10.6c0-1.7-0.1-1.7-1.8-1.7
		C724.9,468,719.2,468,713.4,468z"/>
	<path fill="#7DA4EC" d="M734,484.9c-5.8,0-11.5,0-17.3,0c-1.9,0-1.9,0-1.9,1.9c0,3.4,0,6.9,0,10.3c0,1.7,0.1,1.7,1.8,1.7
		c11.6,0,23.2,0,34.8,0c1.6,0,1.6-0.1,1.6-1.8c0-3.4,0-6.7,0-10.1c0-2,0-2-2-2C745.4,484.9,739.7,484.9,734,484.9z"/>
	<path fill="#151D38" d="M696.8,298c6.5,0,12.9,0,19.4,0c2.6,0,2.9,0.2,2.9,2.9c0,4,0,8,0,12c0,2,0,2,2,2c5,0,10.1,0,15.1,0
		c0.6,0,1.1,0,1.7,0c1.4,0.1,1.8,0.5,1.9,1.9c0.1,1.8,0,3.7,0,5.5c0,3.3,0,6.6,0,9.8c0,2.3-0.3,2.6-2.7,2.6c-8.1,0-16.1,0-24.2,0
		c-4.9,0-9.8,0-14.6,0c-2.6,0-2.9-0.3-2.9-2.9c0-3.9,0-7.8,0-11.7c0-2.3,0-2.3-2.4-2.3c-5.1,0-10.2,0-15.3,0c-2.7,0-2.9-0.2-2.9-2.8
		c0-4.8,0-9.6,0-14.4c0-2.3,0.3-2.6,2.6-2.6C683.9,298,690.3,298,696.8,298z"/>
	<path fill="#FFFFFF" d="M696.8,314.9c5.8,0,11.7,0,17.5,0c1.7,0,1.7,0,1.8-1.7c0-3.4,0-6.9,0-10.3c0-1.9,0-1.9-1.8-1.9
		c-3.4,0-6.9,0-10.3,0c-8.2,0-16.3,0-24.5,0c-1.7,0-1.8,0-1.8,1.7c0,3.4,0,6.9,0,10.3c0,1.8,0,1.9,1.8,1.9
		C685.3,314.9,691.1,314.9,696.8,314.9z"/>
	<path fill="#151D38" d="M717.6,317.8c-5.6,0-11.2,0-16.8,0c-2.4,0-2.4,0-2.4,2.5c0,3,0,5.9,0,8.9c0,2.5,0,2.5,2.4,2.5
		c7.5,0,15,0,22.5,0c3.8,0,7.7,0,11.5,0c1.9,0,1.9,0,1.9-1.8c0-3.4,0-6.9,0-10.3c0-1.8-0.1-1.8-1.9-1.8
		C729.1,317.8,723.3,317.8,717.6,317.8z"/>
	<path fill="#151D38" d="M314.5,263c-6.4,0-12.8,0-19.2,0c-2.7,0-2.9-0.2-2.9-2.8c0-4.8,0-9.6,0-14.4c0-2.3,0.3-2.7,2.6-2.7
		c13,0,26.1,0,39.1,0c2.3,0,2.7,0.3,2.7,2.6c0,4.9,0,9.7,0,14.6c0,2.3-0.3,2.6-2.6,2.6C327.6,263,321.1,263,314.5,263z"/>
	<path fill="#151D38" d="M314.7,260.1c5.8,0,11.5,0,17.3,0c1.8,0,1.9,0,1.9-1.9c0-3.4,0-6.9,0-10.3c0-1.7-0.1-1.7-1.8-1.7
		c-11.7,0-23.3,0-35,0c-1.3,0-1.7,0.4-1.6,1.7c0.1,3.4,0,6.9,0,10.3c0,1.9,0,2,2,2C303.2,260.1,309,260.1,314.7,260.1z"/>
	<path fill="#151D38" d="M567.6,405.2c-6.4,0-12.8,0-19.2,0c-2.9,0-3.1-0.2-3.1-2.9c0-4.7,0-9.4,0-14.1c0-2.5,0.3-2.8,2.8-2.8
		c12.9,0,25.9,0,38.8,0c2.5,0,2.8,0.2,2.8,2.7c0,4.9,0,9.7,0,14.6c0,2.2-0.3,2.5-2.5,2.5C580.7,405.2,574.2,405.2,567.6,405.2z
		 M567.5,402.2c5.2,0,10.4,0,15.6,0c3.8,0,3.8,0,3.8-3.8c0-2.8,0-5.6,0-8.4c0-1.7-0.1-1.7-1.8-1.7c-0.5,0-1,0-1.4,0
		c-9.2,0-18.4,0-27.6,0c-1.9,0-3.8,0-5.8,0c-1.8,0-1.8,0-1.8,1.9c0,3.4,0,6.9,0,10.3c0,1.7,0,1.7,1.8,1.7
		C556,402.2,561.7,402.2,567.5,402.2z"/>
	<path fill="#151D38" d="M1104,564.4c0-1.4,0.4-3.1-0.1-4.2c-0.5-1.1-2.4-0.9-3.7-1.3c-7.7-2.8-12.1-10.7-10.3-18.8
		c1.7-7.8,9.3-13.3,17.3-12.4c8.3,0.9,14.4,7.6,14.5,15.8c0.1,7.6-4.8,14-12.1,15.9c-0.5,0.1-1.1,0.3-1.6,0.4
		c-0.6,0.1-0.8,0.4-0.8,1c0,2.6,0,5.1,0,7.7c0,0.9,0.6,1,1.2,1.1c2.1,0.4,4.1,1.1,6,2.4c5.5,3.6,8.4,10.1,7.1,16.4
		c-1.4,6.7-5.5,11.1-12.1,12.8c-2.6,0.7-2.2,0.6-2.2,2.8c0,1.8,0,3.7,0,5.5c0,1.2,0.3,1.6,1.6,1.9c8.4,1.8,13.6,8.8,13,17.3
		c-0.6,7.9-7.1,14.1-15.2,14.6c-7.7,0.5-14.9-5-16.5-12.5c-1.9-9,3.4-17.4,12.4-19.3c1.4-0.3,1.8-0.8,1.8-2.2c-0.1-1.9,0-3.8,0-5.8
		c0-1.8,0-1.8-1.8-2.2c-3.7-0.8-6.7-2.6-9.1-5.4c-7.6-9.2-3.1-22.9,8.5-25.9c2.4-0.6,2.4-0.6,2.4-3.1c0-0.7,0-1.4,0-2.2
		C1104.1,564.4,1104,564.4,1104,564.4z"/>
	<path fill="#151D38" d="M1104.1,543.6c0-3.7,0-7.5,0-11.2c0-1.6-0.3-1.8-1.8-1.4c-5.5,1.6-9.6,6.1-9.8,12.7
		c-0.1,5.7,4.3,11.2,9.6,12.6c1.8,0.5,2,0.4,2-1.7C1104.1,550.9,1104.1,547.3,1104.1,543.6z"/>
	<path fill="#ACDCF6" d="M1104.1,585.2c0-3.7,0-7.5,0-11.2c0-1.7-0.1-1.8-1.8-1.4c-5.5,1.3-9.9,6.9-9.9,12.7
		c0,5.8,4.3,11.4,9.9,12.7c1.5,0.4,1.8,0.2,1.8-1.5C1104.1,592.7,1104.1,589,1104.1,585.2z"/>
	<path fill="#FFFFFF" d="M1104.1,627.1C1104.1,627.1,1104.1,627.1,1104.1,627.1c0-3.9,0-7.8,0-11.7c0-1.4-0.2-1.5-1.5-1.2
		c-5.7,1.3-10.2,6.8-10.1,12.8c0.2,6.8,4.7,11.4,10.1,12.7c1.4,0.3,1.5,0.3,1.5-1.2C1104.1,634.6,1104.1,630.9,1104.1,627.1z"/>
	<path fill="#FFFFFF" d="M1107.2,626.9c0,3.8,0,7.5,0,11.3c0,1.8,0.1,1.8,1.7,1.4c5.7-1.4,9.9-6.8,9.9-12.7
		c0-5.9-4.3-11.4-10.1-12.7c-1.4-0.3-1.5-0.3-1.5,1.2C1107.1,619.2,1107.2,623,1107.2,626.9z"/>
	<path fill="#CCD6DA" d="M1118.7,585.2c0-5.9-4.3-11.3-9.9-12.6c-1.6-0.4-1.7-0.3-1.7,1.2c0,7.6,0,15.2,0,22.7
		c0,1.6,0.3,1.8,1.8,1.4C1114.5,596.6,1118.8,591,1118.7,585.2z"/>
	<path fill="#FFFFFF" d="M1107.2,543.6c0,3.8,0,7.5,0,11.3c0,1.8,0.1,1.8,1.7,1.4c5.6-1.3,9.9-6.8,9.9-12.6c0-5.9-4.3-11.4-9.8-12.7
		c-1.6-0.4-1.8-0.2-1.8,1.4C1107.1,536.1,1107.2,539.9,1107.2,543.6z"/>
	<path fill="#151D38" d="M1069,543.8c0.3,6-4.1,13.5-12,15.5c-0.5,0.1-0.9,0.3-1.4,0.3c-1,0-1.1,0.6-1.1,1.4c0,2.2,0.1,4.3,0,6.5
		c-0.1,1.3,0.4,1.7,1.6,2c5.8,1.3,10,4.7,12,10.3c3.4,9.9-2.6,19.2-11.6,21.2c-2,0.4-2,0.4-2,2.4c0,1.8,0.1,3.7,0,5.5
		c-0.1,1.3,0.3,1.9,1.8,2.2c6.4,1.4,10.7,5.4,12.3,11.8c2.4,9.7-3.5,17.7-11.9,19.7c-9,2.1-17.9-3.8-19.5-12.8
		c-1.5-8.7,3.9-16.7,12.5-18.7c1.8-0.4,1.8-0.4,1.9-2.3c0-1.7,0-3.4,0-5c0-2.3,0.4-2.3-2.2-2.8c-2.2-0.5-4.3-1.4-6-2.8
		c-5.3-4.2-7.5-9.7-6-16.3c1.4-6.4,5.5-10.5,11.9-12.2c2.4-0.6,2.4-0.6,2.4-3.1c0-1.4,0-2.9,0-4.3c0-2.4,0-2.4-2.3-2.9
		c-4.5-1.1-8-3.6-10.3-7.6c-3.3-6-3.1-12.1,1-17.6c4.1-5.5,9.8-7.6,16.5-6.1c6.6,1.5,10.6,5.9,12.2,12.4
		C1068.9,541.5,1068.9,542.6,1069,543.8z"/>
	<path fill="#FFFFFF" d="M1051.5,626.9c0-3.8,0-7.7,0-11.5c0-1.5-0.1-1.5-1.5-1.2c-5.7,1.2-10.1,6.6-10.2,12.6
		c-0.1,6,4.2,11.4,10,12.8c1.6,0.4,1.7,0.4,1.7-1.4C1051.5,634.4,1051.5,630.6,1051.5,626.9z"/>
	<path fill="#151D38" d="M1051.5,543.9c0-3.8,0-7.7,0-11.5c0-1.6-0.3-1.8-1.9-1.4c-2,0.5-3.7,1.4-5.2,2.8c-3.9,3.5-5.4,7.9-4.1,13
		c1.2,5,4.5,8.2,9.5,9.5c1.7,0.5,1.8,0.4,1.8-1.4C1051.5,551.2,1051.5,547.6,1051.5,543.9z"/>
	<path fill="#CCD6DA" d="M1051.5,585.1c0-3.7,0-7.3,0-11c0-1.9-0.1-1.9-1.9-1.5c-5.6,1.3-9.7,6.8-9.8,12.7c0,5.9,4.3,11.4,9.8,12.7
		c1.6,0.4,1.9,0.2,1.9-1.6C1051.5,592.6,1051.5,588.8,1051.5,585.1z"/>
	<path fill="#FFFFFF" d="M1066,627.1c0-6.2-4-11.4-9.8-12.9c-1.6-0.4-1.7-0.4-1.7,1.2c0,7.7,0,15.3,0,23c0,1.4,0.2,1.5,1.5,1.2
		C1061.7,638.3,1065.9,633,1066,627.1z"/>
	<path fill="#ACDCF6" d="M1066,585.4c0-6.1-4.3-11.6-9.9-12.8c-1.6-0.3-1.6-0.3-1.6,1.3c0,7.5,0,15,0,22.5c0,1.9,0.2,2,2.1,1.5
		C1062.1,596.2,1065.9,591.1,1066,585.4z"/>
	<path fill="#FFFFFF" d="M1054.4,543.6c0,3.7,0,7.4,0,11c0,2,0.1,2.1,2,1.7c5.6-1.4,9.6-6.9,9.5-12.9c-0.1-5.8-4.4-11.2-9.8-12.4
		c-1.4-0.3-1.7-0.2-1.7,1.3C1054.4,536.1,1054.4,539.8,1054.4,543.6z"/>
	<path fill="#151D38" d="M1121.7,462.9c0,13.3,0,26.5,0,39.8c0,0.6,0,1.1,0,1.7c-0.1,2-0.4,2.3-2.4,2.4c-0.4,0-0.8,0-1.2,0
		c-8.2,0-16.5,0-24.7,0c-0.6,0-1.1,0-1.7,0c-1.1,0-1.8-0.6-1.8-1.8c0-0.6,0-1.1,0-1.7c0-26.9,0-53.7,0-80.6c0-3.2,0-3.2,3.1-3.2
		c8.6,0,17.1,0,25.7,0c3,0,3,0,3,3.1C1121.7,436.1,1121.7,449.5,1121.7,462.9z"/>
	<path fill="#ACDCF6" d="M1092.8,462.9c0,12.9,0,25.7,0,38.6c0,2.2,0,2.2,2.3,2.2c6.9,0,13.8,0,20.6,0c3.6,0,3,0.1,3-3.2
		c0-25,0-50.1,0-75.1c0-0.5,0-1,0-1.4c0.1-1.3-0.5-1.7-1.7-1.6c-7.5,0-15,0-22.5,0c-1.7,0-1.7,0.1-1.7,1.8c0,0.6,0,1.1,0,1.7
		C1092.8,438.3,1092.8,450.6,1092.8,462.9z"/>
	<path fill="#151D38" d="M1068.9,463c0,13.3,0,26.7,0,40c0,0.6,0,1.3,0,1.9c0,1.2-0.6,1.7-1.8,1.8c-0.5,0-1,0-1.4,0
		c-8.5,0-16.9,0-25.4,0c-0.5,0-1,0-1.4,0c-1.1-0.1-1.8-0.7-1.8-1.8c0-0.6,0-1.1,0-1.7c0-26.8,0-53.6,0-80.3c0-0.3,0-0.6,0-1
		c0.1-2.2,0.3-2.4,2.5-2.4c8.9,0,17.7,0,26.6,0c2.6,0,2.7,0.1,2.7,2.7C1068.9,435.8,1068.9,449.4,1068.9,463z"/>
	<path fill="#ACDCF6" d="M1066,462.9c0-12.5,0-24.9,0-37.4c0-3.4,0.3-3-3.1-3c-6.6,0-13.3,0-19.9,0c-0.6,0-1.1,0-1.7,0
		c-0.8,0-1.2,0.3-1.2,1.1c0,0.5,0,1,0,1.4c0,25.4,0,50.9,0,76.3c0,2.4,0,2.4,2.5,2.4c7,0,13.9,0,20.9,0c0.4,0,0.8,0,1.2,0
		c0.9,0,1.4-0.3,1.3-1.3c0-0.6,0-1.3,0-1.9C1066,488,1066,475.5,1066,462.9z"/>
	<path fill="#151D38" d="M1105.7,687.6c-4.3,0-8.6,0-12.9,0c-2.6,0-2.8-0.3-2.8-2.9c0-5.7,0-11.3,0-17c0-2.5,0.3-2.8,2.7-2.8
		c8.8,0,17.6,0,26.4,0c2.4,0,2.7,0.4,2.7,2.8c0,5.8,0,11.5,0,17.3c0,2.3-0.3,2.6-2.6,2.7C1114.6,687.6,1110.1,687.6,1105.7,687.6z"
		/>
	<path fill="#FFFFFF" d="M1105.9,684.6c3.8,0,7.5,0,11.3,0c1.2,0,1.7-0.4,1.6-1.7c-0.1-4.5-0.1-9,0-13.4c0-1.1-0.4-1.6-1.5-1.6
		c-7.6,0-15.2,0-22.8,0c-1.2,0-1.7,0.4-1.6,1.7c0.1,4.4,0,8.8,0,13.2c0,1.7,0.1,1.7,1.7,1.7C1098.3,684.6,1102.1,684.6,1105.9,684.6
		z"/>
	<path fill="#151D38" d="M1053.1,687.6c-4.3,0-8.6,0-12.9,0c-2.8,0-3.1-0.3-3.1-3c0-5.6,0-11.2,0-16.8c0-2.7,0.3-3,2.8-3
		c8.8,0,17.6,0,26.4,0c2.3,0,2.7,0.3,2.7,2.6c0,5.8,0,11.7,0,17.5c0,2.3-0.3,2.6-2.6,2.6C1061.9,687.6,1057.5,687.6,1053.1,687.6z"
		/>
	<path fill="#FFFFFF" d="M1052.8,684.6c3.8,0,7.7,0,11.5,0c1.2,0,1.7-0.3,1.7-1.6c-0.1-4.5-0.1-9,0-13.4c0-1.3-0.6-1.6-1.7-1.6
		c-7.5,0-15,0-22.5,0c-1.6,0-1.7,0.1-1.7,1.8c0,4.3,0,8.6,0,12.9c0,1.8,0,1.8,1.9,1.8C1045.6,684.6,1049.2,684.6,1052.8,684.6z"/>
	<path fill="#151D38" d="M1053.2,698.3c4.4,0,8.8,0,13.2,0c2.4,0,2.5,0.1,2.5,2.6c0,5.7,0,11.5,0,17.2c0,2.5-0.2,2.7-2.8,2.7
		c-8.8,0-17.6,0-26.3,0c-2.5,0-2.7-0.3-2.7-2.8c0-5.7,0-11.3,0-17c0-2.6,0.2-2.7,2.7-2.8C1044.3,698.3,1048.7,698.3,1053.2,698.3z"
		/>
	<path fill="#FFFFFF" d="M1053,717.9c3.8,0,7.5,0,11.3,0c1.1,0,1.8-0.2,1.7-1.6c-0.1-4.6,0-9.1,0-13.7c0-1.1-0.4-1.4-1.4-1.4
		c-7.7,0-15.3,0-23,0c-1.2,0-1.5,0.4-1.5,1.5c0,4.4,0,8.8,0,13.2c0,1.8,0,1.9,1.9,1.9C1045.6,717.9,1049.3,717.9,1053,717.9z"/>
	<path fill="#151D38" d="M1105.8,698.3c4.5,0,8.9,0,13.4,0c2.2,0,2.5,0.2,2.5,2.5c0,5.8,0,11.7,0,17.5c0,2.3-0.3,2.6-2.7,2.6
		c-8.9,0-17.7,0-26.6,0c-2.4,0-2.6-0.2-2.6-2.6c0-5.8,0-11.7,0-17.5c0-2.2,0.2-2.4,2.5-2.4C1096.9,698.3,1101.3,698.3,1105.8,698.3z
		"/>
	<path fill="#ACDCF6" d="M1105.9,701.3c-3.8,0-7.5,0-11.3,0c-1.7,0-1.8,0-1.8,1.7c0,4.3,0,8.6,0,12.9c0,1.9,0,1.9,1.8,1.9
		c7.4,0,14.9,0,22.3,0c1.7,0,1.8-0.1,1.8-1.7c0-4.4,0-8.8,0-13.2c0-1.2-0.3-1.7-1.6-1.7C1113.4,701.3,1109.6,701.3,1105.9,701.3z"/>
	<path fill="#151D38" d="M1105.8,754.1c-4.5,0-8.9,0-13.4,0c-2.3,0-2.5-0.2-2.5-2.4c0-5.9,0-11.8,0-17.7c0-2.1,0.3-2.4,2.3-2.4
		c9,0,18,0,27.1,0c2,0,2.4,0.4,2.4,2.3c0,6,0,12,0,18c0,1.9-0.3,2.2-2.2,2.2C1114.9,754.1,1110.4,754.1,1105.8,754.1z"/>
	<path fill="#FFFFFF" d="M1105.6,751.1c3.8,0,7.7,0,11.5,0c1.2,0,1.7-0.4,1.7-1.6c-0.1-4.5-0.1-9,0-13.4c0-1.3-0.6-1.6-1.7-1.6
		c-7.5,0-15,0-22.5,0c-1.2,0-1.7,0.4-1.7,1.7c0.1,4.4,0,8.8,0,13.2c0,1.8,0.1,1.8,2,1.8C1098.4,751.1,1102,751.1,1105.6,751.1z"/>
	<path fill="#151D38" d="M1053.1,754.1c-4.4,0-8.8,0-13.2,0c-2.6,0-2.8-0.1-2.8-2.6c0-5.7,0-11.5,0-17.2c0-2.3,0.3-2.7,2.6-2.7
		c8.9,0,17.7,0,26.6,0c2.4,0,2.6,0.2,2.6,2.6c0,5.8,0,11.7,0,17.5c0,2.3-0.2,2.5-2.4,2.5C1062,754.1,1057.5,754.1,1053.1,754.1z"/>
	<path fill="#ACDCF6" d="M1052.9,751.1c3.8,0,7.5,0,11.3,0c1.1,0,1.8-0.2,1.8-1.6c-0.1-4.6,0-9.1,0-13.7c0-1-0.4-1.4-1.4-1.4
		c-7.7,0-15.4,0-23,0c-1.2,0-1.5,0.5-1.5,1.6c0,4.5,0,9,0,13.4c0,1.2,0.4,1.7,1.7,1.7C1045.4,751.1,1049.2,751.1,1052.9,751.1z"/>
	<path fill="#151D38" d="M1141.2,792.9c3.5-0.4,7.9,2.7,8,7.8c0.1,4.4-3.5,7.9-7.9,7.9c-4.4,0-7.9-3.6-7.9-8
		C1133.4,796.3,1136.9,792.9,1141.2,792.9z"/>
	<path fill="#FFFFFF" d="M1139.9,800.7C1139.9,800.7,1139.9,800.7,1139.9,800.7c0-1.2,0-2.4,0-3.6c0-0.8-0.5-0.9-1.1-0.5
		c-2.9,1.7-3.1,6.2-0.2,8.1c0.9,0.6,1.3,0.4,1.3-0.6C1139.9,802.9,1139.9,801.8,1139.9,800.7z"/>
	<path fill="#FFFFFF" d="M1142.8,800.6c0,1.2,0,2.4,0,3.6c0,0.9,0.6,0.9,1.1,0.5c1.4-0.9,2.2-2.3,2.2-4c0-1.8-0.9-3.2-2.4-4.2
		c-0.5-0.3-0.9-0.2-1,0.5C1142.8,798.2,1142.8,799.4,1142.8,800.6z"/>
	<path fill="#151D38" d="M962.6,507c-12.4,0.4-26.6-9.5-26.6-26.7c0-14.8,11.5-26.5,26.6-26.5c17.1,0,26.9,14.2,26.7,26.9
		C989.1,495.3,976.8,507.3,962.6,507z"/>
	<path fill="#ACDCF6" d="M939,480.5c0.3,14.8,12.6,23.8,24,23.6c12.9-0.2,23.4-10.9,23.3-24c-0.1-12.7-10.8-23.2-23.6-23.2
		C950.1,456.8,939.2,466.8,939,480.5z"/>
	<path fill="#151D38" d="M826.7,507c-13.8,0.4-26.7-11.2-26.7-26.5c0-13.3,10.3-26.7,26.7-26.6c15.9,0,26.6,12.7,26.6,26.7
		C853.3,495.2,841.4,506.9,826.7,507z"/>
	<path fill="#CCD6DA" d="M826.7,456.8c-12.8-0.1-23.6,10.5-23.7,23.3c-0.1,12.8,10.4,23.6,23,23.9c11.4,0.3,24.2-8.3,24.3-23.5
		C850.4,466.5,839,456.9,826.7,456.8z"/>
	<path fill="#151D38" d="M868.1,480.3c-0.5-11.9,9.1-26.4,26.5-26.5c16.8,0,26.8,13.8,26.7,26.8c-0.1,14.7-12.5,26.4-26.7,26.4
		C880,507,867.6,494.6,868.1,480.3z"/>
	<path fill="#7DA4EC" d="M918.2,480.6c0.5-11.4-9-23.7-23.4-23.8c-13-0.2-23.7,10.5-23.7,23.5c0,13.1,10.5,23.7,23.5,23.7
		C907.6,504,918.2,493.5,918.2,480.6z"/>
	<path fill="#151D38" d="M807.8,385.8c4.5,0,7.9,3.4,7.8,7.9c0,4.3-3.5,7.8-7.8,7.8c-4.4,0-7.9-3.4-7.9-7.9
		C799.9,389.1,803.2,385.8,807.8,385.8z"/>
	<path fill="#ACDCF6" d="M812.6,393.5c0-1.5-0.7-2.8-2-3.7c-0.9-0.6-1.3-0.5-1.3,0.6c0,2.2,0,4.5,0,6.7c0,1,0.5,1.1,1.2,0.7
		C811.8,396.7,812.6,395.3,812.6,393.5z"/>
	<path fill="#ACDCF6" d="M806.3,393.8C806.3,393.8,806.3,393.8,806.3,393.8c0-1.2,0-2.4,0-3.6c0-0.9-0.4-1.1-1.2-0.6
		c-2.7,1.6-3,5.7-0.5,7.7c0.4,0.3,0.7,0.7,1.3,0.5c0.6-0.2,0.4-0.8,0.4-1.2C806.3,395.7,806.3,394.7,806.3,393.8z"/>
	<path fill="#151D38" d="M372.7,481.4c11.8,0,23.5,0,35.3,0c2.8,0,3,0.2,3,3c0,9.6,0,19.2,0,28.8c0,2.7-0.4,3.1-3,3.1
		c-23.5,0-47,0-70.5,0c-2.6,0-2.9-0.3-2.9-2.9c0-9.8,0-19.5,0-29.3c0-2.6,0.2-2.7,2.7-2.7C349.1,481.3,360.9,481.4,372.7,481.4z"/>
	<path fill="#FFFFFF" d="M372.9,484.3c-11,0-22.1,0-33.1,0c-2.2,0-2.3,0-2.3,2.2c0,8.2,0,16.3,0,24.5c0,2.2,0,2.2,2.2,2.2
		c8.9,0,17.7,0,26.6,0c0.6,0,1.5,0.3,1.7-0.3c0.3-0.7-0.6-1-1-1.4c-4.3-4.1-8.5-8.2-12.8-12.3c-0.6-0.6-1.3-1.2-1.8-1.9
		c-0.5-0.6-0.4-1.2,0.1-1.7c0.5-0.5,1.1-0.8,1.7-0.4c0.5,0.3,1,0.8,1.5,1.2c5.5,5.2,11,10.5,16.4,15.8c0.7,0.7,1.5,1.1,2.5,1.1
		c10.5,0,20.9,0,31.4,0c1.7,0,1.8,0,1.8-2c0-5.1,0-10.2,0-15.3c0-3.4,0-6.7,0-10.1c0-1.1-0.3-1.7-1.5-1.5c-0.6,0.1-1.1,0-1.7,0
		C394.2,484.3,383.5,484.3,372.9,484.3z"/>
	<path fill="#151D38" d="M393.4,534.3c0-2.2,0-4.5,0-6.7c0-1.6,0.4-2,2-2c4.5,0,8.9,0,13.4,0c1.6,0,2.1,0.4,2.1,2
		c0.1,4.5,0.1,9.1,0,13.7c0,1.6-0.5,2-2.1,2c-4.5,0-8.9,0-13.4,0c-1.7,0-2-0.4-2.1-2.2C393.4,538.8,393.4,536.6,393.4,534.3z"/>
	<path fill="#7DA4EC" d="M396.4,534.4c0,1.5,0,3,0,4.5c0,0.9,0.3,1.3,1.2,1.3c3,0,6.1,0,9.1,0c0.9,0,1.3-0.3,1.3-1.3
		c0-3,0-6.1,0-9.1c0-0.8-0.2-1.4-1.2-1.3c-3,0-6.1,0-9.1,0c-0.9,0-1.3,0.3-1.3,1.3C396.4,531.3,396.4,532.9,396.4,534.4z"/>
	<path fill="#151D38" d="M352.1,534.5c0,4.9-4,8.8-8.9,8.8c-4.9,0-8.8-4.1-8.7-9c0.1-4.8,4-8.7,8.8-8.7
		C348.1,525.6,352.1,529.6,352.1,534.5z"/>
	<path fill="#7DA4EC" d="M349.1,534.5c0.1-3.1-2.5-5.9-5.7-5.9c-3.1-0.1-5.8,2.6-5.8,5.7c0,3.2,2.5,5.8,5.7,5.9
		C346.3,540.3,349,537.7,349.1,534.5z"/>
	<path fill="#151D38" d="M364.1,534.3c0-4.9,3.9-8.7,8.7-8.7c5.3,0,9,4.4,8.8,9.1c-0.2,4.8-4,8.7-8.9,8.5
		C367,543.1,363.7,538.3,364.1,534.3z"/>
	<path fill="#7DA4EC" d="M378.6,534.4c0-3.2-2.7-5.8-5.8-5.8c-3.1,0-5.7,2.7-5.7,5.9c0,3.2,2.7,5.8,5.8,5.8
		C376,540.2,378.6,537.5,378.6,534.4z"/>
	<path fill="#151D38" d="M372.9,420.9c17.3,0,34.5,0,51.8,0c0.6,0,1.1,0,1.7,0c2,0.1,2.4,0.4,2.5,2.4c0.1,3.1,0.1,6.2,0,9.4
		c0,2-0.5,2.4-2.6,2.5c-0.5,0-1,0-1.4,0c-34.7,0-69.4,0-104.1,0c-4,0-4,0-4-4.1c0-2.6,0-5.1,0-7.7c0-2.2,0.2-2.4,2.5-2.4
		c1.8,0,3.7,0,5.5,0C340.8,420.9,356.9,420.9,372.9,420.9z"/>
	<path fill="#FFFFFF" d="M372.7,432.1c16.6,0,33.3,0,49.9,0c0.6,0,1.3,0,1.9,0c1.1,0.1,1.4-0.4,1.4-1.4c0-1.4,0-2.7,0-4.1
		c0-3.2,0.1-2.7-2.7-2.7c-33.7,0-67.3,0-101,0c-0.5,0-1,0-1.4,0c-0.8,0-1.2,0.3-1.1,1.1c0,1.9,0,3.8,0,5.8c0,1.1,0.5,1.4,1.5,1.3
		c0.6,0,1.3,0,1.9,0C339.6,432.1,356.1,432.1,372.7,432.1z"/>
	<path fill="#151D38" d="M409.6,375.8c7.3,0,13.1,5.9,13.1,13.1c0,7.4-6,13.3-13.3,13.2c-7.2-0.1-13.1-6.1-13-13.3
		C396.4,381.6,402.3,375.8,409.6,375.8z"/>
	<path fill="#FFFFFF" d="M419.6,388.3c0-1.3-0.5-3.2-1.6-4.8c-0.8-1.2-0.9-1.2-1.9-0.1c-3.6,4.4-7.2,8.7-10.8,13.1
		c-1,1.2-0.9,1.3,0.6,1.9C412.5,401,419.7,396,419.6,388.3z"/>
	<path fill="#7DA4EC" d="M409.5,378.8c-3.8,0.2-6.9,1.9-8.8,5.2c-1.9,3.4-1.8,6.8,0.2,10.2c0.9,1.5,1,1.5,2.1,0.2
		c3.1-3.7,6.2-7.5,9.3-11.2c0.8-0.9,2.4-1.9,1.9-3c-0.5-1.2-2.3-1.1-3.7-1.3C410.2,378.8,409.9,378.8,409.5,378.8z"/>
	<path fill="#151D38" d="M336,375.8c7.3,0,13.1,5.9,13,13.2c0,7.2-5.9,13.1-13.1,13.1c-7.4,0-13.2-5.9-13.1-13.3
		C322.9,381.5,328.7,375.8,336,375.8z"/>
	<path fill="#FFFFFF" d="M346,389c0-2.1-0.6-3.9-1.7-5.6c-0.5-0.8-1-0.9-1.6-0.1c-3.7,4.5-7.4,9-11.1,13.5c-0.8,0.9-0.4,1.3,0.5,1.7
		C338.6,401.2,346,396.1,346,389z"/>
	<path fill="#7DA4EC" d="M325.8,389c-0.1,2,0.6,3.8,1.6,5.4c0.7,1.2,1,1.2,1.9,0.2c3.7-4.4,7.3-8.9,11-13.3c0.8-0.9,0.5-1.3-0.5-1.7
		C333.4,376.7,325.8,381.8,325.8,389z"/>
	<path fill="#151D38" d="M836.5,568c0,1.5,0,3,0,4.5c0,1.9-0.4,2.3-2.2,2.3c-3.1,0-6.2,0-9.3,0c-1.8,0-2.3-0.5-2.3-2.3
		c-0.1-3-0.1-6.1,0-9.1c0-1.8,0.5-2.3,2.3-2.3c3.1,0,6.2,0,9.3,0c1.8,0,2.2,0.4,2.2,2.3C836.5,565,836.5,566.5,836.5,568z
		 M825.7,567.9c0,0.7,0,1.4,0,2.1c0,1.9,0.1,1.9,1.8,1.9c1,0,1.9,0,2.9,0c3.7,0,3.1,0.2,3.1-3.2c0-1.4,0.6-3.1-0.4-4.1
		c-0.9-0.9-2.6-0.3-3.9-0.3C825.3,564.3,825.8,563.8,825.7,567.9z"/>
	<path fill="#151D38" d="M813.5,568.1c0,1.6,0,3.2,0,4.8c-0.1,1.6-0.4,2-2,2c-3.2,0.1-6.4,0.1-9.6,0c-1.6,0-2-0.4-2.1-2
		c-0.1-3.3-0.1-6.6,0-9.8c0-1.4,0.5-1.8,1.9-1.9c3.3-0.1,6.6-0.1,9.8,0c1.6,0,1.9,0.4,1.9,2.1C813.6,564.9,813.5,566.5,813.5,568.1z
		"/>
	<path fill="#CCD6DA" d="M802.8,568.2c0.1,4.3-0.7,3.7,3.9,3.7c0.1,0,0.2,0,0.2,0c3.7,0,3.7,0,3.7-3.7c0-4,0-4-3.9-4
		C802.8,564.3,802.8,564.3,802.8,568.2z"/>
	<path fill="#151D38" d="M856.9,568.1c0,3.8-3.1,6.8-6.9,6.8c-3.8,0-6.8-3-6.9-6.8c0-3.9,3.1-7,7-6.9
		C853.9,561.3,856.9,564.3,856.9,568.1z M850,564.3c-2.1,0-3.8,1.7-3.9,3.7c0,2,1.8,3.8,3.8,3.9c2.1,0.1,4-1.8,4-3.9
		C853.8,565.9,852.1,564.3,850,564.3z"/>
	<path fill="#151D38" d="M984.1,561.2c3.8,0.1,6.8,3.1,6.8,6.9c0,3.9-3.2,7-7.1,6.8c-3.8-0.1-6.7-3.2-6.6-7
		C977.2,564.1,980.3,561.1,984.1,561.2z"/>
	<path fill="#FFFFFF" d="M984,571.9c2.1,0,3.8-1.8,3.8-3.8c0-2.2-1.8-3.9-4-3.8c-2.1,0.1-3.8,1.9-3.7,3.9
		C980.1,570.2,982,571.9,984,571.9z"/>
	<path fill="#151D38" d="M569.2,630c25.7,0,51.3,0,77,0c3.4,0,6.5,0.6,9.1,2.9c3.7,3.3,5.2,8.5,3.4,13.1c-1.8,4.9-5.5,7.5-10.7,8
		c-0.6,0.1-1.3,0-1.9,0c-51.5,0-103,0-154.5,0c-1.6,0-3.2-0.1-4.7-0.5c-5.6-1.7-9-7-8.4-12.9c0.6-5.5,5.1-10,10.8-10.5
		c1-0.1,1.9-0.1,2.9-0.1C517.8,630,543.5,630,569.2,630z"/>
	<path fill="#FFFFFF" d="M569,633c-22.5,0-44.9,0-67.4,0c-0.7,0-1.4,0-2.2,0c-0.4,0-0.6,0.3-0.3,0.7c0.3,0.4,0.6,0.7,0.9,1.1
		c3,4.2,3.1,9.5,0.4,13.7c-0.4,0.7-1.7,1.3-1.2,2.1c0.4,0.6,1.6,0.2,2.5,0.2c44.8,0,89.5,0,134.3,0c0.5,0,1,0,1.4,0
		c0.4,0,1,0,1.1-0.2c0.3-0.5-0.3-0.8-0.5-1.2c-3.5-4.8-3.6-10.1-0.4-14.7c0.4-0.5,1.2-1,0.9-1.5c-0.4-0.7-1.3-0.2-2-0.3
		c-0.3,0-0.6,0-1,0C613.5,633,591.3,633,569,633z"/>
	<path fill="#FFFFFF" d="M490.3,651c5,0,9-3.9,9.1-8.9c0.1-4.9-4-9-9-9c-4.9,0-9,4-9.1,8.9C481.3,646.9,485.3,650.9,490.3,651z"/>
	<path fill="#FFFFFF" d="M647.6,651c4.9,0,9-4.2,8.9-9.1c-0.1-4.9-4.2-8.9-9.2-8.8c-4.9,0.1-9,4.3-8.9,9.1
		C638.4,647,642.6,651,647.6,651z"/>
</g>
</svg>
